<mxfile host="app.diagrams.net" modified="2024-03-01T14:30:23.299Z" agent="Mozilla/5.0 (X11; Linux x86_64) AppleWebKit/537.36 (KHTML, like Gecko) Chrome/122.0.0.0 Safari/537.36" version="23.1.7" etag="N3c0zdpDzVM0YRjFFg_e" type="github">
  <diagram name="Page-1" id="bse9tQHAHjW1PWI9iUkm">
    <mxGraphModel>
      <root>
        <mxCell id="0" />
        <mxCell id="1" parent="0" />
      </root>
    </mxGraphModel>
  </diagram>
</mxfile>
